<svg xmlns="http://www.w3.org/2000/svg">
<symbol id="arrow-down" viewBox="0 0 16 16"> <path fill-rule="evenodd" clip-rule="evenodd" d="M8 0C8.55228 0 9 0.447715 9 1V12.5858L14.2929 7.29289C14.6834 6.90237 15.3166 6.90237 15.7071 7.29289C16.0976 7.68342 16.0976 8.31658 15.7071 8.70711L8.70711 15.7071C8.31658 16.0976 7.68342 16.0976 7.29289 15.7071L0.292893 8.70711C-0.0976311 8.31658 -0.0976311 7.68342 0.292893 7.29289C0.683417 6.90237 1.31658 6.90237 1.70711 7.29289L7 12.5858V1C7 0.447715 7.44772 0 8 0Z" fill="white"/> </symbol>
<symbol id="arrow-right" viewBox="0 0 8 12"> <path fill-rule="evenodd" clip-rule="evenodd" d="M0 1.4L4.6 6L0 10.6L1.4 12L7.4 6L1.4 0L0 1.4Z"/> </symbol>
<symbol id="mail-icon" viewBox="0 0 26 20"> <path d="M24.2273 0H1.77273C0.768182 0 0 0.764706 0 1.76471V18.2353C0 19.2353 0.768182 20 1.77273 20H24.2273C25.2318 20 26 19.2353 26 18.2353V1.76471C26 0.764706 25.2318 0 24.2273 0ZM24.2273 17L19.5591 12.3529C19.2045 12 18.6727 12 18.3182 12.3529C17.9636 12.7059 17.9636 13.2353 18.3182 13.5882L22.9864 18.2353H3.01362L7.68182 13.5882C8.03636 13.2353 8.03636 12.7059 7.68182 12.3529C7.32727 12 6.79547 12 6.44092 12.3529L1.77273 17V5.70585L12.4091 13.7059C12.5864 13.8236 12.7636 13.8823 12.9409 13.8823C13.1182 13.8823 13.2954 13.8236 13.4727 13.7059L24.2273 5.70585V17ZM24.2273 1.76471V3.4706L12.9409 11.8235L1.77273 3.4706V1.76471H24.2273Z" fill="#D7D9DF"/> </symbol>
<symbol id="phone-icon" viewBox="0 0 17 24"> <path fill-rule="evenodd" clip-rule="evenodd" d="M5.13226 2.61174C5.09815 2.61201 5.03364 2.61885 4.92717 2.65043L4.91852 2.653C4.12947 2.87938 3.5485 3.23832 3.09706 3.87517L3.09092 3.88383L3.0846 3.89236C2.55038 4.61305 2.32267 5.54375 2.39396 6.55393L2.39407 6.55552C2.43655 7.17132 2.52269 7.84309 2.70011 8.49155C3.92568 12.7089 5.95647 16.4364 8.76882 19.6414C9.34707 20.293 10.0894 20.8682 10.8499 21.3139L10.855 21.3169C11.8909 21.9323 13.4107 21.667 14.3757 20.6154L14.3832 20.6072C14.6242 20.3503 14.6219 20.2377 14.6208 20.2065C14.6184 20.1379 14.5756 19.9171 14.203 19.4761C13.9257 19.1585 13.6315 18.8595 13.313 18.5362L13.3038 18.5269C12.9961 18.2146 12.6652 17.8787 12.3466 17.5143C11.9563 17.0964 11.669 16.9133 11.4465 16.8471C11.2652 16.7931 11.0197 16.7838 10.6106 16.9888C10.2565 17.1711 9.86742 17.2999 9.44969 17.2952C9.01048 17.2902 8.63684 17.1388 8.32758 16.9204C8.03764 16.7156 7.80167 16.4502 7.60511 16.1996C7.41391 15.9557 7.21869 15.6708 7.02471 15.3877L6.99941 15.3508L6.99511 15.3443C6.25634 14.2295 5.82983 13.3452 5.568 12.8022C5.53457 12.7329 5.50383 12.6692 5.47547 12.6113C5.07809 11.8308 4.70496 11.0431 4.67011 10.2629C4.62967 9.35743 5.03265 8.63861 5.69268 7.98494C5.80626 7.86398 5.94972 7.64665 6.05828 7.38709C6.16876 7.12293 6.19756 6.92455 6.19302 6.83205C6.08181 5.93825 5.8515 5.11812 5.60216 4.23023C5.48241 3.80383 5.35828 3.36181 5.24084 2.88849C5.19844 2.72663 5.15577 2.64666 5.13226 2.61174ZM6.15179 0.881011C6.73032 1.22425 7.02727 1.80997 7.17798 2.39097L7.18071 2.40146C7.26739 2.7512 7.37229 3.12618 7.48211 3.51849C7.75236 4.48395 8.05203 5.55448 8.18109 6.61254L8.18316 6.62947L8.18465 6.64646C8.23139 7.18073 8.08415 7.72663 7.9034 8.15879C7.71836 8.60123 7.44744 9.04553 7.12726 9.37862L7.11771 9.38855L7.10789 9.39822C6.68493 9.81464 6.66124 10.0198 6.66812 10.1737C6.68073 10.4561 6.83243 10.8688 7.26116 11.7105L7.26465 11.7173L7.26804 11.7243C7.30003 11.7895 7.33373 11.8593 7.36959 11.9336C7.62845 12.4697 8.00028 13.2397 8.65799 14.2331C8.86867 14.5405 9.0301 14.7756 9.17901 14.9655C9.33049 15.1587 9.42557 15.2474 9.48139 15.2868C9.48446 15.289 9.48718 15.2908 9.48957 15.2924C9.51917 15.2863 9.58519 15.2674 9.69761 15.2093L9.70751 15.2042C10.4766 14.8173 11.2508 14.7022 12.0171 14.9302C12.7409 15.1457 13.3263 15.6305 13.8218 16.1638L13.8325 16.1753L13.8428 16.1871C14.1216 16.5068 14.4173 16.8074 14.7377 17.1326L14.7469 17.1419C15.0581 17.4578 15.3931 17.7978 15.7151 18.167L15.7198 18.1724L15.7244 18.1778C16.2205 18.7632 16.5941 19.4107 16.6196 20.1362C16.6463 20.8971 16.2853 21.5018 15.8455 21.9717C14.3526 23.5951 11.8181 24.2134 9.83629 23.038C8.93131 22.5073 8.01432 21.805 7.27075 20.9665L7.26734 20.9626C4.25391 17.529 2.08237 13.5368 0.777349 9.04206L0.775323 9.03508L0.773398 9.02807C0.547421 8.2053 0.446787 7.38864 0.398814 6.69315C0.301574 5.311 0.603737 3.88557 1.47156 2.70991C2.2384 1.63259 3.24198 1.05398 4.36284 0.731699C4.91618 0.56838 5.56462 0.532635 6.15179 0.881011Z"/> </symbol>
<symbol id="tick" viewBox="0 0 14 12"> <path fill-rule="evenodd" clip-rule="evenodd" d="M13.6138 0.210585C14.0498 0.549578 14.1285 1.17784 13.7895 1.61385L6.01453 11.6138C5.84138 11.8365 5.58223 11.9758 5.30094 11.9972C5.01966 12.0186 4.74242 11.9202 4.53757 11.7262L0.312502 7.72623C-0.0885582 7.34653 -0.105878 6.71361 0.273818 6.31255C0.653514 5.91149 1.28644 5.89417 1.6875 6.27386L5.11216 9.51608L12.2105 0.386246C12.5495 -0.0497617 13.1778 -0.128408 13.6138 0.210585Z"/> </symbol>
</svg>
